/* XPM */
static char *_24318d4dfbd4e629a0f20d367877492[] = {
/* columns rows colors chars-per-pixel */
"81 81 182 2 ",
"   c #D19D1F",
".  c #D29E1F",
"X  c #D69F1F",
"o  c #D8A21F",
"O  c #DDA51F",
"+  c #D6A020",
"@  c #D8A120",
"#  c #D8A220",
"$  c #D9A220",
"%  c #D8A320",
"&  c #D8A321",
"*  c #DBA320",
"=  c #DBA520",
"-  c #DAA421",
";  c #DBA521",
":  c #DDA420",
">  c #DCA520",
",  c #DDA520",
"<  c #DCA521",
"1  c #DDA521",
"2  c #DEA520",
"3  c #DEA521",
"4  c #DDA620",
"5  c #DDA720",
"6  c #DDA621",
"7  c #DEA620",
"8  c #DEA720",
"9  c #DFA720",
"0  c #DEA621",
"q  c #DFA621",
"w  c #DEA721",
"e  c #DFA721",
"r  c #DFA821",
"t  c #E0A721",
"y  c #E1A721",
"u  c #E0A920",
"i  c #E0A821",
"p  c #E1A821",
"a  c #E0A921",
"s  c #E1A921",
"d  c #E2A921",
"f  c #E3AA21",
"g  c #E3AB21",
"h  c #E0A822",
"j  c #E1A822",
"k  c #E1A922",
"l  c #E2AA22",
"z  c #E4AA21",
"x  c #E4AB21",
"c  c #E4AA22",
"v  c #E4AB22",
"b  c #E5AB22",
"n  c #E6AD21",
"m  c #E4AC22",
"M  c #E5AC22",
"N  c #E6AD22",
"B  c #E7AD22",
"V  c #E6AD23",
"C  c #E7AE22",
"Z  c #E8AD22",
"A  c #E8AD23",
"S  c #E8AE22",
"D  c #E9AE22",
"F  c #E8AF22",
"G  c #E9AF22",
"H  c #E8AE23",
"J  c #E9AF23",
"K  c #EAAF22",
"L  c #EAAF23",
"P  c #E8AF24",
"I  c #EBB022",
"U  c #EBB122",
"Y  c #EAB023",
"T  c #EBB023",
"R  c #EBB123",
"E  c #ECB122",
"W  c #ECB023",
"Q  c #ECB123",
"!  c #EDB123",
"~  c #ECB223",
"^  c #EDB223",
"/  c #EDB323",
"(  c #EEB223",
")  c #EFB323",
"_  c #EFB423",
"`  c #EAB024",
"'  c #EBB124",
"]  c #ECB024",
"[  c #ECB124",
"{  c #EDB124",
"}  c #ECB224",
"|  c #EDB224",
" . c #EDB324",
".. c #EEB224",
"X. c #EFB224",
"o. c #EEB324",
"O. c #EFB324",
"+. c #EFB325",
"@. c #EFB424",
"#. c #EEB425",
"$. c #EFB425",
"%. c #F0B323",
"&. c #F0B523",
"*. c #F1B523",
"=. c #F0B424",
"-. c #F1B424",
";. c #F0B524",
":. c #F1B524",
">. c #F0B425",
",. c #F0B525",
"<. c #F1B525",
"1. c #F2B524",
"2. c #F2B525",
"3. c #F1B724",
"4. c #F2B624",
"5. c #F3B624",
"6. c #F3B724",
"7. c #F2B625",
"8. c #F3B625",
"9. c #F2B725",
"0. c #F3B725",
"q. c #F3B726",
"w. c #F4B724",
"e. c #F4B725",
"r. c #F5B725",
"t. c #F4B825",
"y. c #F5B825",
"u. c #F5B925",
"i. c #F6B825",
"p. c #F6B925",
"a. c #F7B925",
"s. c #F7BA25",
"d. c #F7BB25",
"f. c #F5B826",
"g. c #F5B926",
"h. c #F6B926",
"j. c #F7BA26",
"k. c #F7BB26",
"l. c #F8BA25",
"z. c #F8BB25",
"x. c #F9BB25",
"c. c #F8BA26",
"v. c #F9BA26",
"b. c #F8BB26",
"n. c #F9BB26",
"m. c #F8BA27",
"M. c #FABB26",
"N. c #F9BC25",
"B. c #F8BC26",
"V. c #F9BC26",
"C. c #F9BC27",
"Z. c #FABC26",
"A. c #FBBC26",
"S. c #FABD26",
"D. c #FBBD26",
"F. c #FABC27",
"G. c #FBBC27",
"H. c #FABD27",
"J. c #FBBD27",
"K. c #FCBD26",
"L. c #FDBD26",
"P. c #FCBD27",
"I. c #FDBE26",
"U. c #FDBF26",
"Y. c #FCBE27",
"T. c #FDBE27",
"R. c #FDBF27",
"E. c #FEBE27",
"W. c #FEBF27",
"Q. c #FFBF27",
"!. c #FDBE28",
"~. c #FDBF28",
"^. c #FEBF28",
"/. c #FFBF28",
"(. c #FFC027",
"). c #FEC028",
"_. c #FFC028",
"`. c #FFC128",
"'. c #FFC228",
"]. c #FFC229",
"[. c #FFC329",
"{. c None",
/* pixels */
"{.{.{.{.{.{.{.{.{.{.{.{.{.{.{.{.{.{.{.{.{.{.{.{.{.{.{.{.{.{.{.{.{.{.{.{.{.{.{.{.{.{.{.{.{.{.{.{.{.{.{.{.{.{.{.{.{.{.{.{.{.{.{.{.{.{.{.{.{.{.{.{.{.{.{.{.{.{.{.{.{.",
"{.{.{.{.{.{.{.{.{.{.{.{.{.{.{.{.{.{.{.{.{.{.{.{.{.{.{.{.{.{.{.{.{.{.{.{.{.{.{.{.{.{.{.{.{.{.{.{.{.{.{.{.{.{.{.{.{.{.{.{.{.{.{.{.{.{.{.{.{.{.{.{.{.{.{.{.{.{.{.{.{.",
"{.{.{.{.{.{.{.{.{.{.{.{.{.{.{.{.{.{.{.{.{.{.{.{.{.{.{.{.{.{.{.{.{.{.{.{.{.{.{.{.{.{.{.{.{.{.{.{.{.{.{.{.{.{.{.{.{.{.{.{.{.{.{.{.{.{.{.{.{.{.{.{.{.{.{.{.{.{.{.{.{.",
"{.{.{.{.{.{.{.{.{.{.{.{.{.{.{.{.{.{.{.{.{.{.{.{.{.{.{.{.{.{.{.{.{.{.{.{.{.{.{.{.{.{.{.{.{.{.{.{.{.{.{.{.{.{.{.{.{.{.{.{.{.{.{.{.{.{.{.{.{.{.{.{.{.{.{.{.{.{.{.{.{.",
"{.{.{.{.{.{.{.{.{.{.{.{.{.{.{.{.{.{.{.{.{.{.{.{.{.{.{.{.{.{.{.{.{.{.{.{.{.{.{.{.{.{.{.{.{.{.{.{.{.{.{.{.{.{.{.{.{.{.{.{.{.{.{.{.{.{.{.{.{.{.{.{.{.{.{.{.{.{.{.{.{.",
"{.{.{.{.{.{.{.{.{.{.{.{.{.{.{.{.{.{.{.{.{.{.{.{.{.{.{.{.{.{.{.{.{.{.{.{.{.{.{.{.{.{.{.{.{.{.{.{.{.{.{.{.{.{.{.{.{.{.{.{.{.{.{.{.{.{.{.{.{.{.{.{.{.{.{.{.{.{.{.{.{.",
"{.{.{.{.{.{.{.{.{.{.{.{.{.{.{.{.{.{.{.{.{.{.{.{.{.{.{.{.{.{.{.{.{.{.{.{.{.{.{.{.{.{.{.{.{.{.{.{.{.{.{.{.{.{.{.{.{.{.{.{.{.{.{.{.{.{.{.{.{.{.{.{.{.{.{.{.{.{.{.{.{.",
"{.{.{.{.{.{.{.{.{.{.{.{.{.{.{.{.{.{.{.{.{.{.{.{.{.{.{.{.{.{.{.{.{.{.{.{.{.{.{.{.{.{.{.{.{.{.{.{.{.{.{.{.{.{.{.{.{.{.{.{.{.{.{.{.{.{.{.{.{.{.{.{.{.{.{.{.{.{.{.{.{.",
"{.{.{.{.{.{.{.{.{.{.{.{.{.{.{.{.{.{.{.{.{.{.{.{.{.{.{.{.{.{.{.{.{.{.{.{.{.{.{.{.{.{.{.{.{.{.{.{.{.{.{.{.{.{.{.{.{.{.{.{.{.{.{.{.{.{.{.{.{.{.{.{.{.{.{.{.{.{.{.{.{.",
"{.{.{.{.{.{.{.{.{.{.{.{.{.{.{.{.{.{.{.{.{.{.{.{.{.{.{.{.{.{.{.{.{.{.{.{.{.{.{.{.{.{.{.{.{.{.{.{.{.{.{.{.{.{.{.{.{.{.{.{.{.{.{.{.{.{.{.{.{.{.{.{.{.{.{.{.{.{.{.{.{.",
"{.{.{.{.{.{.{.{.{.{.{.{.{.{.{.{.{.{.{.{.{.{.{.{.{.{.{.{.{.{.{.{.{.{.{.{.{.{.{.{.{.{.{.{.{.{.{.{.{.{.{.{.{.{.{.{.{.{.{.{.{.{.{.{.{.{.{.{.{.{.{.{.{.{.{.{.{.{.{.{.{.",
"{.{.{.{.{.{.{.{.{.{.{.{.{.{.{.{.{.{.{.{.{.{.{.{.{.{.{.{.{.{.{.{.{.{.{.{.{.{.{.{.{.{.{.{.{.{.{.{.{.{.{.{.{.{.{.{.{.{.{.{.{.{.{.{.{.{.{.{.{.{.{.{.{.{.{.{.{.{.{.{.{.",
"{.{.{.{.{.{.{.{.{.{.{.{.{.{.{.{.{.{.{.{.{.{.{.{.{.{.{.{.{.{.{.{.{.{.{.{.{.{.{.{.{.{.{.{.{.{.{.{.{.{.{.{.{.{.{.{.{.{.{.{.{.{.{.{.{.{.{.{.{.{.{.{.{.{.{.{.{.{.{.{.{.",
"{.{.{.{.{.{.{.{.{.{.{.{.{.{.{.{.{.{.{.{.{.{.{.{.{.{.{.{.{.{.{.{.{.{.{.{.{.{.{.{.{.{.{.{.{.{.{.{.{.{.{.{.{.{.{.{.{.{.{.{.{.{.{.{.{.{.{.{.{.{.{.{.{.{.{.{.{.{.{.{.{.",
"{.{.{.{.{.{.{.{.{.{.{.{.{.{.{.{.{.{.{.{.{.{.{.{.{.{.{.{.{.{.{.{.{.{.{.{.{.{.{.{.{.{.{.{.{.{.{.{.{.{.{.{.{.{.{.{.{.{.{.{.{.{.{.{.{.{.{.{.{.{.{.{.{.{.{.{.{.{.{.{.{.",
"{.{.{.{.{.{.{.{.{.{.{.{.{.{.{.{.{.{.{.{.{.{.{.{.{.{.{.{.{.{.{.{.{.{.{.{.{.{.{.{.{.{.{.{.{.{.{.{.{.{.{.{.{.{.{.{.{.{.{.{.{.{.{.{.{.{.{.{.{.{.{.{.{.{.{.{.{.{.{.{.{.",
"{.{.{.{.{.{.{.{.{.{.{.{.{.{.{.{.{.{.{.{.{.{.{.{.{.{.{.{.{.{.{.{.{.{.{.{.{.{.{.{.{.{.{.{.{.{.{.{.{.{.{.{.{.{.{.{.{.{.{.{.{.{.{.{.{.{.{.{.{.{.{.{.{.{.{.{.{.{.{.{.{.",
"{.{.{.{.{.{.{.{.{.{.{.{.{.{.{.{.{.{.{.{.{.{.{.{.{.{.{.{.{.{.{.{.{.{.{.{.{.{.{.{.{.{.{.{.{.{.{.{.{.{.{.{.{.{.{.{.{.{.{.{.{.{.{.{.{.{.{.{.{.{.{.{.{.{.{.{.{.{.{.{.{.",
"{.{.{.{.{.{.{.{.{.{.{.{.{.{.{.{.{.{.{.{.{.{.{.{.{.{.{.{.{.{.{.{.{.{.{.{.{.{.{.{.0.{.{.{.{.{.{.{.{.{.{.{.{.{.{.{.{.{.{.{.{.{.{.{.{.{.{.{.{.{.{.{.{.{.{.{.{.{.{.{.{.",
"{.{.{.{.{.{.{.{.{.{.{.{.{.{.{.{.{.{.{.{.{.{.{.{.{.{.{.{.{.{.{.{.{.{.{.{.{.{.{.X.`.Z {.{.{.{.{.{.{.{.{.{.{.{.{.{.{.{.{.{.{.{.{.{.{.{.{.{.{.{.{.{.{.{.{.{.{.{.{.{.{.",
"{.{.{.{.{.{.{.{.{.{.{.{.{.{.{.{.{.{.{.{.{.{.{.{.{.{.{.{.{.{.{.{.{.{.{.{.{.{.{.x.`.x.{.{.{.{.{.{.{.{.{.{.{.{.{.{.{.{.{.{.{.{.{.{.{.{.{.{.{.{.{.{.{.{.{.{.{.{.{.{.{.",
"{.{.{.{.{.{.{.{.{.{.{.{.{.{.{.{.{.{.{.{.{.{.{.{.{.{.{.{.{.{.{.{.{.{.{.{.{.{.< ^.^.T.{.{.{.{.{.{.{.{.{.{.{.{.{.{.{.{.{.{.{.{.{.{.{.{.{.{.{.{.{.{.{.{.{.{.{.{.{.{.{.",
"{.{.{.{.{.{.{.{.{.{.{.{.{.{.{.{.{.{.{.{.{.{.{.{.{.{.{.{.{.{.{.{.{.{.{.{.{.{.@.^.`.T.< {.{.{.{.{.{.{.{.{.{.{.{.{.{.{.{.{.{.{.{.{.{.{.{.{.{.{.{.{.{.{.{.{.{.{.{.{.{.",
"{.{.{.{.{.{.{.{.{.{.{.{.{.{.{.{.{.{.{.{.{.{.{.{.{.{.{.{.{.{.{.{.{.{.{.{.{.{.0.^.`.T.< {.{.{.{.{.{.{.{.{.{.{.{.{.{.{.{.{.{.{.{.{.{.{.{.{.{.{.{.{.{.{.{.{.{.{.{.{.{.",
"{.{.{.{.{.{.{.{.{.{.{.{.{.{.{.{.{.{.{.{.{.{.{.{.{.{.{.{.{.{.{.{.{.k.k.k.z {.+ T.^.^.{.{.a x.k.0.{.{.{.{.{.{.{.{.{.{.{.{.{.{.{.{.{.{.{.{.{.{.{.{.{.{.{.{.{.{.{.{.{.",
"{.{.{.{.{.{.{.{.{.{.{.{.{.{.{.{.{.{.{.{.{.{.{.{.{.{.{.{.{.{.{.{.Z (.`.T.x.r.T Y.^.x.n k.C.^.`.`.X.{.{.{.{.{.{.{.{.{.{.{.{.{.{.{.{.{.{.{.{.{.{.{.{.{.{.{.{.{.{.{.{.",
"{.{.{.{.{.{.{.{.{.{.{.{.{.{.{.{.{.{.{.{.{.{.{.{.{.{.{.{.{.{.{.{.T T.k.{.{.( Y.T.`.`.k.( {.{.k.(.( {.{.{.{.{.{.{.{.{.{.{.{.{.{.{.{.{.{.{.{.{.{.{.{.{.{.{.{.{.{.{.{.",
"{.{.{.{.{.{.{.{.{.{.{.{.{.{.{.{.{.{.{.0.{.{.{.{.{.{.{.{.{.{.{.{.{.k.y {.{.{.k.`.T.T.k.{.{.{.< r.{.{.{.{.{.{.{.{.{.{.{.{.< 0.{.{.{.{.{.{.{.{.{.{.{.{.{.{.{.{.{.{.{.",
"{.{.{.{.{.{.{.{.{.{.{.{.{.{.{.{.{.{.< T.x.{.{.{.{.{.{.{.{.{.{.{.{.{.{.{.{.{.k.(.`.^.r.{.{.{.{.{.{.{.{.{.{.{.{.{.{.{.{.{.x.`.{.{.{.{.{.{.{.{.{.{.{.{.{.{.{.{.{.{.{.",
"{.{.{.{.{.{.{.{.{.{.{.{.{.{.{.{.{.{.a ^.`.r.{.{.{.{.{.{.{.{.{.{.{.{.{.{.{.0.0.0.`.( k.-.{.{.{.{.{.{.{.{.{.{.{.{.{.{.{.k.^.^.< {.{.{.{.{.{.{.{.{.{.{.{.{.{.{.{.{.{.",
"{.{.{.{.{.{.{.{.{.{.{.{.{.{.{.{.{.{.a ^.`.T.< {.{.{.{.< & {.{.{.{.{.{.{.{.T {.& x.& {.( {.{.{.{.{.{.{.{.& < {.{.{.{.Z T.`.T.O {.{.{.{.{.{.{.{.{.{.{.{.{.{.{.{.{.{.",
"{.{.{.{.{.{.{.{.{.{.{.{.{.{.{.{.{.{.< T.^.`.0.{.{.T x.`.k.{.{.{.{.{.{.{.{.{.{.{.k.{.{.{.{.{.{.{.{.{.{.< ^.`.k.n {.{.0.`.`.T.{.{.{.{.{.{.{.{.{.{.{.{.{.{.{.{.{.{.{.",
"{.{.{.{.{.{.{.{.{.{.{.{.{.{.{.{.{.{.{.x.^.^.0.{.( Y.T.^.`.X.{.{.{.{.{.{.{.{.{.a ^.< {.{.{.{.{.{.{.{.{.< `.^.`.k.Z {.T.^.^.x.{.{.{.{.{.{.{.{.{.{.{.{.{.{.{.{.{.{.{.",
"{.{.{.{.{.{.{.{.{.{.{.{.{.{.{.{.{.{.{.n `.^.k.-.k.r {.n Y.{.{.{.{.{.{.{.{.{.{.Z `.X.{.{.{.{.{.{.{.{.{.< T.( {.z 0.X.T.`.`.z {.{.{.{.{.{.{.{.{.{.{.{.{.{.{.{.{.{.{.",
"{.{.{.{.{.{.{.{.{.{.{.{.{.{.{.< X.L y o k.`.^.x.{.{.{.{.+ {.{.{.{.{.{.{.{.{.{.k.`.k.{.{.{.{.{.{.{.{.{.{.& {.{.{.a T.`.`.0.X a Z X.- {.{.{.{.{.{.{.{.{.{.{.{.{.{.{.",
"{.{.{.{.{.{.{.{.{.{.{.{.{.{.k.`.`.C.T.k.T.^.`.C.{.{.{.{.{.{.{.{.{.{.{.{.{.{.{.x.`.C.{.{.{.{.{.{.{.{.{.{.{.{.{.{.a T.`.^.Y.k.Y.T.^.(.0.{.{.{.{.{.{.{.{.{.{.{.{.{.{.",
"{.{.{.{.{.{.{.{.{.{.{.{.{.{.T.`.0.{.{.{.k.^.^.`.k.y {.{.{.{.{.{.{.{.{.{.{.{.a ^.^.^.n {.{.{.{.{.{.{.{.{.{.{.{.n k.`.^.`.Z {.{.{.k.T.x.{.{.{.{.{.{.{.{.{.{.{.{.{.{.",
"{.{.{.{.{.{.{.{.{.{.{.{.{.{.X.`.z {.{.{.k.`.`.x.( &.< {.{.{.{.{.{.{.{.{.{.{.0.^.`.^.r.{.{.{.{.{.{.{.{.{.{.{.O k.L ^.^.`.n {.{.{.k.`.( {.{.{.{.{.{.{.{.{.{.{.{.{.{.",
"{.{.{.{.{.{.{.{.{.{.0.Z {.{.{.( < {.{.{.x.` x.0.{.{.{.{.{.{.{.{.{.{.{.{.{.{.k.T.^.`.x.{.{.{.{.{.{.{.{.{.{.{.{.{.{.Y.0.P k.{.{.{.r Z {.{.{.( ( < {.{.{.{.{.{.{.{.{.",
"{.< a {.{.{.{.{.{.k.`.(.T {.{.{.{.{.{.< X.{.{.0.{.{.{.{.{.{.{.{.{.{.{.{.{.X.T.`.`.^.`.0.{.{.{.{.{.{.{.{.{.{.{.{.< x.{.{.X.{.{.{.{.{.{.{.T T.`.x.{.{.{.{.{.{.< r {.",
"{.{.k.k.a {.{.{.X.^.^.T.0.{.{.{.{.{.{.{.{.{.{.T.X.{.{.{.{.{.{.{.{.{.{.{.{.0.`.`.^.`.`.x.{.{.{.{.{.{.{.{.{.{.{.{.k.^.{.{.{.{.{.{.{.{.{.{.` T.Y.T.0.{.{.{.a k.x.{.{.",
"{.{.{.k.T.0.{.{.k.t.{.a Z {.{.{.{.{.{.{.{.{.{.x.^.( {.{.{.{.{.{.{.{.{.{.X.`.`.^.`.^.`.`.k.{.{.{.{.{.{.{.{.{.{.0.`.T.{.{.{.{.{.{.{.{.{.{.z < {.0.k.{.{.X.T.k.{.{.{.",
"{.{.{.{.0.^.X.  r.{.{.{.{.{.{.{.{.{.{.{.{.{.< C.`.^.Z {.{.{.{.{.{.{.{.a x.`.`.^.`.^.`.^.`.X.{.{.{.{.{.{.{.{.( `.`.Y.{.{.{.{.{.{.{.{.{.{.{.{.{.{.0.  Z ^.w.{.{.{.{.",
"{.{.{.{.{.` k.t.k.{.{.{.{.{.{.{.{.{.{.{.{.{.0.`.^.`.`.X.{.{.{.{.{.{.X.x.`.`.^.`.^.`.^.`.`.C.0.{.{.{.{.{.{.X.^.`.^.T.{.{.{.{.{.{.{.{.{.{.{.{.{.{.( 0.k.X.{.{.{.{.{.",
"{.{.{.{.{.{.r Y.^.n {.{.{.{.{.{.{.{.{.{.{.{.( ^.`.^.`.^.Y.X.a {.z r.T.`.`.^.`.^.`.^.`.^.`.^.^.x.n {.{.Z Y.^.`.^.`.T.( {.{.{.{.{.{.{.{.{.{.{.{.n x.x.a {.{.{.{.{.{.",
"{.{.{.{.{.{.{.a C.`.x.0.- {.{.{.{.{.{.{.{.{.@.`.^.`.^.`.T.`.^.^.`.(.^.`.^.`.^.`.^.`.^.`.^.`.^.`.`.Y.T.`.^.`.^.`.`.`.( {.{.{.{.{.{.{.{.{.{.0.x.`.C.P {.{.{.{.{.{.{.",
"{.{.{.{.{.{.{.{.X.B.a {.{.{.{.{.{.{.{.{.{.{.x.`.`.^.`.^.`.^.^.`.`.^.`.^.`.^.`.^.`.^.`.^.`.^.`.^.`.^.`.`.`.^.`.^.^.`.t.{.{.{.{.{.{.{.{.{.{.{.n m.-.{.{.{.{.{.{.{.{.",
"{.{.{.{.{.{.{.{.{.L y {.{.{.{.{.{.{.{.{.{.Z ^.`.^.`.^.`.^.`.`.^.^.`.^.`.^.`.^.`.^.`.^.`.^.`.^.`.^.`.^.`.^.`.^.`.^.`.T.{.{.{.{.{.{.{.{.{.{.{.{.X.{.{.{.{.{.{.{.{.{.",
"{.{.{.{.{.{.{.{.{.{.-.X.{.{.{.{.{.{.{.{.{.Y.`.`.^.`.^.`.^.`.^.`.^.`.^.`.^.`.^.`.^.`.^.`.^.`.^.`.`.^.`.^.`.^.`.^.`.^.`.0.{.{.{.{.{.{.{.{.{.T &.{.{.{.{.{.{.{.{.{.{.",
"{.{.{.{.{.{.{.{.{.{.{.r.x.n {.{.{.{.{.& k.(.^.`.`.^.`.^.`.^.`.^.`.^.`.^.`.^.`.^.`.^.`.^.`.^.`.^.^.`.^.`.^.`.^.`.^.`.`.^.L {.{.{.{.{.{.{.T k.< {.{.{.{.{.{.{.{.{.{.",
"{.{.{.{.{.{.{.{.{.{.{.n `.T.Y.0.z 0.x.^.T.^.`.^.^.`.^.`.^.`.^.`.^.`.^.`.^.`.^.`.^.`.^.`.^.`.^.`.`.^.`.^.`.^.`.^.`.^.`.^.^.r.a {.{.{.z x.(.0.{.{.{.{.{.{.{.{.{.{.{.",
"{.{.{.{.{.{.{.{.{.{.{.{.0.`.^.^.`.`.^.`.`.`.^.`.`.^.`.^.`.^.`.^.`.^.`.^.`.^.`.^.`.^.`.^.`.^.`.^.^.`.^.`.^.`.^.`.^.`.^.`.`.`.`.C.m.Y.`.`.Y.{.{.{.{.{.{.{.{.{.{.{.{.",
"{.{.{.{.{.{.{.{.{.{.{.{.{.Y.T.^.`.^.`.^.`.^.`.^.^.`.^.`.^.`.^.`.^.`.^.`.^.`.^.`.^.`.^.`.^.`.^.`.`.^.`.^.`.^.`.^.^.`.^.`.^.`.^.`.`.`.^.T.X.{.{.{.{.{.{.{.{.{.{.{.{.",
"{.{.{.{.{.{.{.{.{.{.{.{.{.0.^.`.^.`.^.`.^.`.^.`.`.^.`.^.`.^.`.^.`.^.`.^.`.^.`.^.`.^.`.^.`.^.`.^.^.`.^.`.^.`.^.`.`.^.`.^.`.^.`.^.^.`.`.x.{.{.{.{.{.{.{.{.{.{.{.{.{.",
"{.{.{.{.{.{.{.{.{.{.{.{.{.a T.`.`.^.`.^.`.^.`.^.^.`.^.`.^.`.^.`.^.`.^.`.^.`.^.`.^.`.^.`.^.`.^.`.`.^.`.^.`.^.`.^.^.`.^.`.^.`.^.`.`.^.`.( {.{.{.{.{.{.{.{.{.{.{.{.{.",
"{.{.{.{.{.{.{.{.{.{.{.{.{.{.x.^.^.`.^.`.^.`.^.`.`.^.`.^.`.^.`.^.`.^.`.^.`.^.`.^.`.^.`.^.`.^.`.^.^.`.^.`.^.`.^.`.`.^.`.^.`.^.`.^.^.^.Y.{.{.{.{.{.{.{.{.{.{.{.{.{.{.",
"{.{.{.{.{.{.{.{.{.{.{.{.{.{.Y.(.^.^.`.^.^.`.^.^.`.^.^.^.^.^.`.^.^.`.^.^.^.^.^.^.^.^.`.^.^.^.^.^.(.T.`.T.^.T.`.^.^.`.T.(.`.T.T.`.`.^.k.{.{.{.{.{.{.{.{.{.{.{.{.{.{.",
"{.{.{.{.{.{.{.{.{.{.{.{.{.{.n k.r.k.r.m.m.r.r.k.k.m.x.C.x.m.x.x.x.x.k.C.x.C.C.x.k.x.x.C.C.x.k.Y.T.T.T.T.T.Y.T.T.T.T.Y.T.T.T.^.`.`.`.( {.{.{.{.{.{.{.{.{.{.{.{.{.{.",
"{.{.{.{.{.{.{.{.{.{.{.{.{.{.{.{.{.{.{.{.{.{.{.{.{.{.{.{.{.{.{.{.{.{.{.{.{.{.{.{.{.{.{.{.{.{.{.{.{.{.{.{.{.{.{.{.{.{.{.{.{.{.{.{.{.{.{.{.{.{.{.{.{.{.{.{.{.{.{.{.{.",
"{.{.{.{.{.{.{.{.{.{.{.{.{.{.{.{.{.{.{.{.{.{.{.{.{.{.{.{.{.{.{.{.{.{.{.{.{.{.{.{.{.{.{.{.{.{.{.{.{.{.{.{.{.{.{.{.{.{.{.{.{.{.{.{.{.{.{.{.{.{.{.{.{.{.{.{.{.{.{.{.{.",
"{.{.{.{.{.{.{.{.{.{.{.{.{.{.x.C.Y.B.Y.B.C.x.k.Y.C.C.C.C.Y.k.k.Y.C.x.k.Y.C.C.C.C.Y.B.Y.B.C.x.B.Y.Y.Y.k.x.Y.k.x.C.C.x.k.Y.Y.Y.x.C.Y.x.- {.{.{.{.{.{.{.{.{.{.{.{.{.{.",
"{.{.{.{.{.{.{.{.{.{.{.{.{.{.T.`.(.(.^.^.`.`.(.(.`.^.^.`.(.(.`.^.`.`.(.(.`.^.^.`.(.(.^.^.`.`.(.(.^.^.^.`.(.(.`.^.`.`.(.(.^.^.`.^.`.`.r {.{.{.{.{.{.{.{.{.{.{.{.{.{.",
"{.{.{.{.{.{.{.{.{.{.{.{.{.{.Y.T.T.T.T.T.^.T.T.T.T.T.^.T.T.(.T.T.^.T.T.T.T.T.^.T.T.T.T.T.^.Y.T.T.T.Y.^.^.T.(.T.T.^.C.(.T.T.Y.^.^.T.T.y {.{.{.{.{.{.{.{.{.{.{.{.{.{.",
"{.{.{.{.{.{.{.{.{.{.{.{.{.{.r.k.p.p.k.k.k.k.z.p.k.k.k.k.p.p.k.k.k.k.z.p.k.k.k.k.p.p.k.k.k.k.p.p.k.k.k.k.z.p.k.k.k.k.p.p.p.k.k.k.k.x.{.{.{.{.{.{.{.{.{.{.{.{.{.{.{.",
"{.{.{.{.{.{.{.{.{.{.{.{.{.{.{.{.{.{.{.{.{.{.{.{.{.{.{.{.{.{.{.{.{.{.{.{.{.{.{.{.{.{.{.{.{.{.{.{.{.{.{.{.{.{.{.{.{.{.{.{.{.{.{.{.{.{.{.{.{.{.{.{.{.{.{.{.{.{.{.{.{.",
"{.{.{.{.{.{.{.{.{.{.{.{.{.{.{.{.{.{.{.{.{.{.{.{.{.{.{.{.{.{.{.{.{.{.{.{.{.{.{.{.{.{.{.{.{.{.{.{.{.{.{.{.{.{.{.{.{.{.{.{.{.{.{.{.{.{.{.{.{.{.{.{.{.{.{.{.{.{.{.{.{.",
"{.{.{.{.{.{.{.{.{.{.{.{.{.{.{.{.{.{.{.{.{.{.{.{.{.{.{.{.{.{.{.{.{.{.{.{.{.{.{.{.{.{.{.{.{.{.{.{.{.{.{.{.{.{.{.{.{.{.{.{.{.{.{.{.{.{.{.{.{.{.{.{.{.{.{.{.{.{.{.{.{.",
"{.{.{.{.{.{.{.{.{.{.{.{.{.{.{.{.{.{.{.{.{.{.{.{.{.{.{.{.{.{.{.{.{.{.{.{.{.{.{.{.{.{.{.{.{.{.{.{.{.{.{.{.{.{.{.{.{.{.{.{.{.{.{.{.{.{.{.{.{.{.{.{.{.{.{.{.{.{.{.{.{.",
"{.{.{.{.{.{.{.{.{.{.{.{.{.{.{.{.{.{.{.{.{.{.{.{.{.{.{.{.{.{.{.{.{.{.{.{.{.{.{.{.{.{.{.{.{.{.{.{.{.{.{.{.{.{.{.{.{.{.{.{.{.{.{.{.{.{.{.{.{.{.{.{.{.{.{.{.{.{.{.{.{.",
"{.{.{.{.{.{.{.{.{.{.{.{.{.{.{.{.{.{.{.{.{.{.{.{.{.{.{.{.{.{.{.{.{.{.{.{.{.{.{.{.{.{.{.{.{.{.{.{.{.{.{.{.{.{.{.{.{.{.{.{.{.{.{.{.{.{.{.{.{.{.{.{.{.{.{.{.{.{.{.{.{.",
"{.{.{.{.{.{.{.{.{.{.{.{.{.{.{.{.{.{.{.{.{.{.{.{.{.{.{.{.{.{.{.{.{.{.{.{.{.{.{.{.{.{.{.{.{.{.{.{.{.{.{.{.{.{.{.{.{.{.{.{.{.{.{.{.{.{.{.{.{.{.{.{.{.{.{.{.{.{.{.{.{.",
"{.{.{.{.{.{.{.{.{.{.{.{.{.{.{.{.{.{.{.{.{.{.{.{.{.{.{.{.{.{.{.{.{.{.{.{.{.{.{.{.{.{.{.{.{.{.{.{.{.{.{.{.{.{.{.{.{.{.{.{.{.{.{.{.{.{.{.{.{.{.{.{.{.{.{.{.{.{.{.{.{.",
"{.{.{.{.{.{.{.{.{.{.{.{.{.{.{.{.{.{.{.{.{.{.{.{.{.{.{.{.{.{.{.{.{.{.{.{.{.{.{.{.{.{.{.{.{.{.{.{.{.{.{.{.{.{.{.{.{.{.{.{.{.{.{.{.{.{.{.{.{.{.{.{.{.{.{.{.{.{.{.{.{.",
"{.{.{.{.{.{.{.{.{.{.{.{.{.{.{.{.{.{.{.{.{.{.{.{.{.{.{.{.{.{.{.{.{.{.{.{.{.{.{.{.{.{.{.{.{.{.{.{.{.{.{.{.{.{.{.{.{.{.{.{.{.{.{.{.{.{.{.{.{.{.{.{.{.{.{.{.{.{.{.{.{.",
"{.{.{.{.{.{.{.{.{.{.{.{.{.{.{.{.{.{.{.{.{.{.{.{.{.{.{.{.{.{.{.{.{.{.{.{.{.{.{.{.{.{.{.{.{.{.{.{.{.{.{.{.{.{.{.{.{.{.{.{.{.{.{.{.{.{.{.{.{.{.{.{.{.{.{.{.{.{.{.{.{.",
"{.{.{.{.{.{.{.{.{.{.{.{.{.{.{.{.{.{.{.{.{.{.{.{.{.{.{.{.{.{.{.{.{.{.{.{.{.{.{.{.{.{.{.{.{.{.{.{.{.{.{.{.{.{.{.{.{.{.{.{.{.{.{.{.{.{.{.{.{.{.{.{.{.{.{.{.{.{.{.{.{.",
"{.{.{.{.{.{.{.{.{.{.{.{.{.{.{.{.{.{.{.{.{.{.{.{.{.{.{.{.{.{.{.{.{.{.{.{.{.{.{.{.{.{.{.{.{.{.{.{.{.{.{.{.{.{.{.{.{.{.{.{.{.{.{.{.{.{.{.{.{.{.{.{.{.{.{.{.{.{.{.{.{.",
"{.{.{.{.{.{.{.{.{.{.{.{.{.{.{.{.{.{.{.{.{.{.{.{.{.{.{.{.{.{.{.{.{.{.{.{.{.{.{.{.{.{.{.{.{.{.{.{.{.{.{.{.{.{.{.{.{.{.{.{.{.{.{.{.{.{.{.{.{.{.{.{.{.{.{.{.{.{.{.{.{.",
"{.{.{.{.{.{.{.{.{.{.{.{.{.{.{.{.{.{.{.{.{.{.{.{.{.{.{.{.{.{.{.{.{.{.{.{.{.{.{.{.{.{.{.{.{.{.{.{.{.{.{.{.{.{.{.{.{.{.{.{.{.{.{.{.{.{.{.{.{.{.{.{.{.{.{.{.{.{.{.{.{.",
"{.{.{.{.{.{.{.{.{.{.{.{.{.{.{.{.{.{.{.{.{.{.{.{.{.{.{.{.{.{.{.{.{.{.{.{.{.{.{.{.{.{.{.{.{.{.{.{.{.{.{.{.{.{.{.{.{.{.{.{.{.{.{.{.{.{.{.{.{.{.{.{.{.{.{.{.{.{.{.{.{.",
"{.{.{.{.{.{.{.{.{.{.{.{.{.{.{.{.{.{.{.{.{.{.{.{.{.{.{.{.{.{.{.{.{.{.{.{.{.{.{.{.{.{.{.{.{.{.{.{.{.{.{.{.{.{.{.{.{.{.{.{.{.{.{.{.{.{.{.{.{.{.{.{.{.{.{.{.{.{.{.{.{."
};
